# xmcd
#
# Track frame offsets:
# 150
# 11875
# 23565
# 37475
# 49295
# 60185
# 71225
# 83620
# 93365
# 105145
#
# Disc length: 1571 seconds
#
#
# Revision: 0
# Processed by: cddbd v1.4PL0 Copyright (c) Steve Scherf et al.
# Submitted via: FreeRIP 2.52 
#
DISCID=7806210a
DTITLE=Bobby Maynard - It's What I Do
DYEAR=2001
DGENRE=Bluegrass
TTITLE0=Bill Cheatum
TTITLE1=Clinch Mountain Backstep
TTITLE2=Foggy Mountain Breakdown
TTITLE3=Arkansas Traveler
TTITLE4=Banjo Medley
TTITLE5=Red Haired Boy and Kitty's Wedding
TTITLE6=Home Sweet Home
TTITLE7=Soldiers Joy
TTITLE8=Gold Rush
TTITLE9=Reuben's Train
EXTD=
EXTT0=
EXTT1=
EXTT2=
EXTT3=
EXTT4=
EXTT5=
EXTT6=
EXTT7=
EXTT8=
EXTT9=
PLAYORDER=
